<svg width="103" height="103" viewBox="0 0 103 103" fill="none" xmlns="http://www.w3.org/2000/svg">
<path d="M0 0H83C94.0457 0 103 8.9543 103 20V83C103 94.0457 94.0457 103 83 103H0V0Z" fill="#7C5DFA"/>
<mask id="mask0_0_7299" style="mask-type:luminance" maskUnits="userSpaceOnUse" x="0" y="0" width="103" height="103">
<path d="M0 0H83C94.0457 0 103 8.9543 103 20V83C103 94.0457 94.0457 103 83 103H0V0Z" fill="white"/>
</mask>
<g mask="url(#mask0_0_7299)">
<path d="M103 52H20C8.95431 52 0 60.9543 0 72V135C0 146.046 8.95431 155 20 155H103V52Z" fill="#9277FF"/>
</g>
<path fill-rule="evenodd" clip-rule="evenodd" d="M42.2545 33.531C36.1364 36.9514 32 43.4927 32 51.0001C32 62.0458 40.9543 71.0001 52 71.0001C63.0457 71.0001 72 62.0458 72 51.0001C72 43.4927 67.8636 36.9514 61.7455 33.531L52.4477 52.2228L52 53.1227L51.5523 52.2228L42.2545 33.531ZM43.1396 33.0649C45.8102 31.743 48.8183 31.0001 52 31.0001C55.1817 31.0001 58.1898 31.743 60.8604 33.0649L52 50.8774L43.1396 33.0649Z" fill="white"/>
</svg>
